<?xml version="1.0" encoding="UTF-8" standalone="no"?>
<!-- Generator: Adobe Illustrator 22.0.1, SVG Export Plug-In . SVG Version: 6.00 Build 0)  -->

<svg
   xmlns:dc="http://purl.org/dc/elements/1.1/"
   xmlns:cc="http://creativecommons.org/ns#"
   xmlns:rdf="http://www.w3.org/1999/02/22-rdf-syntax-ns#"
   xmlns:svg="http://www.w3.org/2000/svg"
   xmlns="http://www.w3.org/2000/svg"
   xmlns:sodipodi="http://sodipodi.sourceforge.net/DTD/sodipodi-0.dtd"
   xmlns:inkscape="http://www.inkscape.org/namespaces/inkscape"
   version="1.1"
   id="Layer_1"
   x="0px"
   y="0px"
   viewBox="70.8 116.3 345.8 299.7"
   style="enable-background:new 70.8 116.3 345.8 299.7;"
   xml:space="preserve"
   width="115px"
   height="100px"
   sodipodi:docname="espace-famille-modifié.svg"
   inkscape:version="0.92.3 (2405546, 2018-03-11)"><metadata
   id="metadata3801"><rdf:RDF><cc:Work
       rdf:about=""><dc:format>image/svg+xml</dc:format><dc:type
         rdf:resource="http://purl.org/dc/dcmitype/StillImage" /><dc:title></dc:title></cc:Work></rdf:RDF></metadata><defs
   id="defs3799" /><sodipodi:namedview
   pagecolor="#ffffff"
   bordercolor="#666666"
   borderopacity="1"
   objecttolerance="10"
   gridtolerance="10"
   guidetolerance="10"
   inkscape:pageopacity="0"
   inkscape:pageshadow="2"
   inkscape:window-width="1920"
   inkscape:window-height="1017"
   id="namedview3797"
   showgrid="false"
   inkscape:zoom="8.48"
   inkscape:cx="57.5"
   inkscape:cy="50"
   inkscape:window-x="1072"
   inkscape:window-y="352"
   inkscape:window-maximized="1"
   inkscape:current-layer="Layer_1" />
<style
   type="text/css"
   id="style3758">
	.st0{fill:#3A6BC5;}
</style>
<g
   id="g3794">
	<g
   id="g3792">
		<g
   id="g3790">
			<path
   class="st0"
   d="M249.5,289.2c-20.4,0-34.6,14.2-34.6,34.6v5.8c0,28,15.8,46.1,40.3,46.1c24.5,0,40.3-18.1,40.3-46.1v-5.8     c0-20.4-14.2-34.6-34.6-34.6H249.5z M284.1,323.8v5.8c0,10.4-2.8,34.6-28.8,34.6c-26,0-28.8-24.2-28.8-34.6v-5.8     c0-14,9-23.1,23.1-23.1H261C275,300.7,284.1,309.8,284.1,323.8z"
   id="path3760" />
			<path
   class="st0"
   d="M243.9,323.8L243.9,323.8c-3.2,0-5.8,2.6-5.8,5.8c0,3.2,2.6,5.8,5.8,5.8c3.2,0,5.8-2.6,5.8-5.8     C249.7,326.4,247.1,323.8,243.9,323.8z"
   id="path3762" />
			<path
   class="st0"
   d="M272.1,248.8c3.2,0.2,5.9-2.1,6.2-5.3l5.8-74.8c1.3-13.7,19.7-29.4,34.6-29.4h11.5     c15.2,0,33.6,15.6,34.6,29.3l5.8,74.9c0.2,3,2.8,5.3,5.7,5.3c0.1,0,0.3,0,0.4,0c3.2-0.2,5.5-3,5.3-6.2l-5.8-74.9     c-1.5-21.1-27.1-39.9-46.1-39.9h-11.5c-21,0-44.2,20.1-46.1,39.9l-5.8,74.9C266.6,245.8,269,248.6,272.1,248.8z"
   id="path3764" />
			<path
   class="st0"
   d="M324.1,166.3c-0.8-2.4-3-3.9-5.5-3.9c-2.5,0-4.7,1.6-5.5,3.9c-4.3,13-17.1,13.3-17.6,13.3     c-3.2,0-5.8,2.6-5.8,5.8v23.1c0,19.3,13.2,46.1,34.6,46.1c21.4,0,34.6-26.9,34.6-46.1v-23.1c0-3.2-2.6-5.8-5.8-5.8     C353,179.7,328.5,179.3,324.1,166.3z M347.5,208.5c0,15.7-10.3,34.6-23.1,34.6c-12.8,0-23.1-18.9-23.1-34.6v-18     c5.6-1.3,12.6-4.5,17.7-11c8.1,8.1,21,10.6,28.4,11.4L347.5,208.5L347.5,208.5z"
   id="path3766" />
			<path
   class="st0"
   d="M186.1,173.9h5.8c3.2,0,5.8-2.6,5.8-5.8c0-3.2-2.6-5.8-5.8-5.8h-5.8c-3.2,0-5.8,2.6-5.8,5.8     C180.3,171.3,182.9,173.9,186.1,173.9z"
   id="path3768" />
			<path
   class="st0"
   d="M267,335.3c3.2,0,5.8-2.6,5.8-5.8c0-3.2-2.6-5.8-5.8-5.8h-0.1c-3.2,0-5.7,2.6-5.7,5.8     C261.2,332.7,263.8,335.3,267,335.3z"
   id="path3770" />
			<path
   class="st0"
   d="M128.7,184c1.1,11.1,5.9,20.8,6.1,21.3c5.2,10.5,13.1,26.2,39.7,26.2c26.6,0,34.5-15.8,39.7-26.2     c0.2-0.5,5-10.2,6.2-21.3c3.6-2,6-5.8,6-10.1v-11.5c0-4.3-2.3-8-5.8-10v-1.5c0-19.1-15.5-34.6-34.6-34.6h-23.1     c-19.1,0-34.6,15.5-34.6,34.6v1.5c-3.4,2-5.8,5.7-5.8,10v11.5C122.7,178.3,125.1,182.1,128.7,184z M134.2,162.4     c3.2,0,5.8-2.6,5.8-5.8v-5.8c0-12.7,10.3-23.1,23.1-23.1h23.1c12.7,0,23.1,10.3,23.1,23.1v5.8c0,3.2,2.6,5.8,5.8,5.8v11.5     c-3.2,0-5.8,2.6-5.8,5.8c0,10-5.1,20.4-5.2,20.5c-6,12-11.3,19.9-29.4,19.9c-18.1,0-23.4-7.9-29.4-19.9     c-0.1-0.1-5.2-10.5-5.2-20.5c0-3.2-2.6-5.8-5.8-5.8L134.2,162.4L134.2,162.4z"
   id="path3772" />
			<path
   class="st0"
   d="M272.6,381.4c-1.1,0-2.3,0.3-3.2,1l-14.1,9.4l-14.1-9.4c-0.9-0.6-2.1-1-3.2-1c-33.3,0-40.3,15.7-40.3,28.8     c0,3.2,2.6,5.8,5.8,5.8c3.2,0,5.8-2.6,5.8-5.8c0-4.6,0-16.8,27.1-17.3l15.8,10.5c1.9,1.3,4.5,1.3,6.4,0l15.8-10.5     c27.1,0.5,27.1,12.6,27.1,17.3c0,3.2,2.6,5.8,5.8,5.8c3.2,0,5.8-2.6,5.8-5.8C312.9,397.1,305.9,381.4,272.6,381.4z"
   id="path3774" />
			<path
   class="st0"
   d="M376.7,312.3L376.7,312.3c-3.2,0-5.8,2.6-5.8,5.7l-0.4,92.2c0,3.2,2.6,5.8,5.7,5.8h0c3.2,0,5.8-2.6,5.8-5.7     l0.4-92.2C382.5,314.9,379.9,312.3,376.7,312.3z"
   id="path3776" />
			<path
   class="st0"
   d="M157.3,173.9h5.8c3.2,0,5.8-2.6,5.8-5.8c0-3.2-2.6-5.8-5.8-5.8h-5.8c-3.2,0-5.8,2.6-5.8,5.8     C151.5,171.3,154.1,173.9,157.3,173.9z"
   id="path3778" />
			<path
   class="st0"
   d="M203.3,278.8l4.8-24.1c29.1,0.7,50.1,7.9,56.5,19.7c1.5,2.8,5,3.8,7.8,2.3c2.8-1.5,3.8-5,2.3-7.8     c-9-16.6-34.2-25.8-70.9-25.8c-2.9-0.1-5.5,1.8-6,4.6l-5.8,28.7c-0.6,3.1,1.4,6.2,4.5,6.8c0.4,0.1,0.8,0.1,1.1,0.1     C200.3,283.4,202.7,281.5,203.3,278.8z"
   id="path3780" />
			<path
   class="st0"
   d="M402.5,271.9c-11.3-11.3-28.3-17.2-49.1-17.2c-3.3,0.1-5.9,2.5-5.9,5.7c0,1.2-0.4,28.8-23.1,28.8     c-22.7,0-23.1-27.6-23.1-28.8c0-3.2-2.6-5.7-5.8-5.7c-3.2,0-5.8,2.6-5.8,5.8c0,12.9,6.2,36.4,28.8,39.8v29.3     c0,3.2,2.6,5.8,5.8,5.8c3.2,0,5.8-2.6,5.8-5.8v-29.3c19.5-3,26.8-20.8,28.4-33.9c15.3,0.9,27.6,5.6,35.7,13.7     c6.9,6.9,10.8,16.3,10.8,26.4v92.2c0,3.2,2.6,5.8,5.8,5.8c3.2,0,5.8-2.6,5.8-5.8v-92.2C416.7,293.3,411.6,281,402.5,271.9z"
   id="path3782" />
			<path
   class="st0"
   d="M174.6,243.1c-6.4,0-11.5,5.2-11.5,11.5c0,4.2,2.3,7.9,5.8,9.9v42c0,3.2,2.6,5.8,5.8,5.8     c3.2,0,5.8-2.6,5.8-5.8v-42c3.4-2,5.8-5.7,5.8-9.9C186.1,248.3,180.9,243.1,174.6,243.1z"
   id="path3784" />
			<path
   class="st0"
   d="M111.2,312.3c-3.2,0-5.8,2.6-5.8,5.8v92.2c0,3.2,2.6,5.8,5.8,5.8c3.2,0,5.8-2.6,5.8-5.8V318     C116.9,314.8,114.4,312.3,111.2,312.3z"
   id="path3786" />
			<path
   class="st0"
   d="M151.4,247.7c-0.6-2.8-3.3-4.6-6-4.6c-30.3,0-53.4,6.5-65.2,18.3c-6.2,6.2-9.3,13.6-9.3,22v115.3     c0,3.2,2.6,5.8,5.8,5.8c3.2,0,5.8-2.6,5.8-5.8V283.4c0-5.3,1.9-9.9,5.9-13.9c9-9,28.1-14.3,52.8-14.8l27.9,133.6     c0.6,3.1,3.7,5.1,6.8,4.5c3.1-0.7,5.1-3.7,4.5-6.8L151.4,247.7z"
   id="path3788" />
		</g>
	</g>
</g>
<path
   style="stroke-width:0.11792453;fill:#ffffff"
   d="M 31.615566,38.210492 C 28.810358,37.779949 26.460021,36.6248 24.636779,34.780538 22.196514,32.312142 20.016333,27.496269 19.348507,23.099105 c -0.06087,-0.400791 -0.154684,-0.546486 -0.482227,-0.748919 -0.223659,-0.13823 -0.591074,-0.492855 -0.816477,-0.788055 -0.673946,-0.88264 -0.762067,-1.384023 -0.762067,-4.335926 v -2.613063 l 0.362007,-0.72444 c 0.213369,-0.42699 0.594333,-0.931018 0.927838,-1.227562 l 0.565831,-0.503121 0.06974,-1.179245 c 0.327181,-5.5325154 4.595769,-10.02771078 10.1435,-10.68199085 0.693973,-0.0818447 2.836596,-0.11112665 5.862621,-0.0801208 4.725166,0.048416 4.77976,0.0517641 5.948182,0.36479117 4.832944,1.29477408 8.28327,5.47071068 8.518072,10.30943948 l 0.0644,1.327214 0.383663,0.237117 c 0.466738,0.28846 0.926671,0.874913 1.271315,1.621033 0.242008,0.523923 0.25783,0.728238 0.25783,3.329403 0,2.73744 -0.0037,2.779135 -0.305893,3.419812 -0.307377,0.651732 -0.725094,1.163478 -1.302125,1.595239 -0.271869,0.203425 -0.349335,0.4278 -0.617764,1.789321 -0.168802,0.856201 -0.496217,2.129786 -0.727587,2.830189 -0.527404,1.596554 -1.864537,4.375599 -2.734148,5.682542 -2.108489,3.168864 -4.869008,4.9024 -8.758238,5.49995 -1.385751,0.212911 -4.174207,0.206826 -5.601415,-0.01222 z m 4.846921,-3.588948 c 2.214785,-0.277711 3.625632,-0.887579 4.938682,-2.134847 1.027004,-0.975554 1.754936,-2.031441 2.738515,-3.972301 1.126967,-2.223802 1.733294,-4.293443 1.913092,-6.530175 0.114317,-1.422129 0.298612,-1.871653 0.946275,-2.308113 0.216875,-0.146152 0.546951,-0.265731 0.733503,-0.265731 h 0.339187 l -0.03233,-1.970511 -0.03233,-1.970512 -0.398254,-0.08134 C 47.096264,15.283325 46.652496,14.948986 46.357606,14.445333 46.157745,14.103986 46.112187,13.741113 46.048239,11.981244 45.987927,10.321404 45.925205,9.7841494 45.727798,9.2364034 45.00335,7.2262798 43.652272,5.6506068 41.929971,4.8072505 40.222735,3.971271 40.14382,3.9622642 34.526445,3.9622642 c -5.570849,0 -5.725622,0.016902 -7.333049,0.8008035 -0.664142,0.3238855 -1.137729,0.6817384 -1.901371,1.4367186 -1.714084,1.6946424 -2.343493,3.3958642 -2.344353,6.3365157 -3.89e-4,1.31859 -0.03124,1.559036 -0.245109,1.909841 -0.341948,0.560902 -0.684494,0.820583 -1.199025,0.908975 l -0.442217,0.07597 v 1.989645 1.989645 l 0.324292,4.72e-4 c 0.178361,2.36e-4 0.497242,0.105889 0.708625,0.234771 0.642759,0.391895 0.804036,0.796578 0.952642,2.390411 0.20812,2.232132 0.801024,4.225132 1.93773,6.513528 2.266125,4.562118 4.627384,6.112676 9.405276,6.17612 0.617857,0.0082 1.550528,-0.03864 2.072601,-0.104105 z"
   id="path3803"
   inkscape:connector-curvature="0"
   transform="matrix(3.0069565,0,0,3.0069565,70.8,115.80217)" /><path
   style="fill:#ffffff;stroke-width:0.11792453"
   d="M 1.1910377,95.783458 C 0.75421612,95.581249 0.36256571,95.165198 0.19653448,94.726993 0.02794106,94.282026 0.0245827,55.439409 0.19303542,54.257075 0.73273264,50.469056 3.5340382,47.238577 7.9716981,45.286687 12.046164,43.494546 17.98967,42.410774 23.765835,42.406696 c 1.681002,-0.0012 2.294709,0.195239 2.71014,0.867422 0.270431,0.437566 9.91584,46.200625 9.915093,47.042586 -9.43e-4,0.998346 -0.776343,1.734301 -1.827389,1.734301 -0.663326,0 -1.225019,-0.27901 -1.545083,-0.767491 -0.126898,-0.19367 -1.935197,-8.608283 -4.873206,-22.67662 L 23.473952,46.238208 22.827777,46.19829 C 21.952252,46.1442 18.857091,46.387195 17.048172,46.652028 11.75787,47.426549 7.715523,49.063376 5.6900075,51.251175 4.9339831,52.067771 4.5335531,52.70663 4.1631233,53.687213 L 3.9033019,54.375 3.8443396,74.56096 C 3.7854584,94.719166 3.785043,94.747367 3.5422419,95.072541 3.4085175,95.251633 3.1604067,95.501717 2.9908848,95.628284 2.60011,95.920039 1.6609956,96.001005 1.1910377,95.783458 Z"
   id="path3805"
   inkscape:connector-curvature="0"
   transform="matrix(3.0069565,0,0,3.0069565,70.8,115.80217)" /><path
   style="fill:#ffffff;stroke-width:0.11792453"
   d="m 28.07783,19.125312 c -1.468855,-0.655636 -1.575697,-2.656975 -0.17986,-3.369078 0.673055,-0.343367 2.982128,-0.346645 3.651448,-0.0052 0.958481,0.488981 1.301335,1.771326 0.70793,2.647805 -0.472861,0.698431 -1.031879,0.894367 -2.536325,0.888981 -0.812969,-0.0029 -1.420141,-0.06296 -1.643193,-0.162525 z"
   id="path3807"
   inkscape:connector-curvature="0"
   transform="matrix(3.0069565,0,0,3.0069565,70.8,115.80217)" /><path
   style="fill:#ffffff;stroke-width:0.11792453"
   d="m 37.623871,19.126581 c -0.426144,-0.185617 -0.966862,-0.795216 -1.070055,-1.206367 -0.115167,-0.458865 0.01957,-1.282483 0.263847,-1.612858 0.122337,-0.165455 0.422841,-0.41474 0.667786,-0.553967 0.404043,-0.229657 0.586512,-0.249541 1.967063,-0.214349 1.312265,0.03345 1.567468,0.0722 1.854174,0.281543 0.391057,0.285534 0.863125,1.152459 0.863125,1.585077 0,0.583391 -0.49043,1.335846 -1.056826,1.621463 -0.453156,0.228513 -0.706785,0.264689 -1.827831,0.260714 -0.813329,-0.0029 -1.436579,-0.06338 -1.661283,-0.161256 z"
   id="path3809"
   inkscape:connector-curvature="0"
   transform="matrix(3.0069565,0,0,3.0069565,70.8,115.80217)" /><path
   style="fill:#ffffff;stroke-width:0.11792453"
   d="m 41.214373,55.347706 c -0.222951,-0.147727 -0.526692,-0.519605 -0.684738,-0.838342 l -0.284044,-0.572841 1.031612,-5.087365 c 0.567387,-2.798051 1.113011,-5.260875 1.212498,-5.472943 0.09949,-0.212067 0.346808,-0.50393 0.549602,-0.648585 0.356706,-0.254441 0.455136,-0.262563 3.022018,-0.249359 7.227556,0.03718 13.519394,1.546946 17.654851,4.236395 1.815426,1.180642 4.031951,3.667567 4.235411,4.752099 0.243405,1.297465 -1.031848,2.494731 -2.285309,2.145551 -0.568891,-0.158477 -0.868007,-0.408631 -1.273629,-1.065146 -1.506571,-2.43845 -4.839574,-4.312457 -9.527808,-5.357085 -2.396343,-0.533951 -6.388279,-1.01084 -8.461524,-1.01084 H 45.60031 l -0.07832,0.442217 c -0.563751,3.183292 -1.592968,7.859243 -1.805621,8.203322 -0.485415,0.785419 -1.717279,1.042881 -2.502,0.522922 z"
   id="path3811"
   inkscape:connector-curvature="0"
   transform="matrix(3.0069565,0,0,3.0069565,70.8,115.80217)" /><path
   style="fill:#ffffff;stroke-width:0.11792453"
   d="m 33.696844,65.082963 c -0.217326,-0.107077 -0.535722,-0.407068 -0.707547,-0.666646 l -0.31241,-0.47196 -0.0338,-7.246964 -0.0338,-7.246964 -0.579363,-0.520897 c -0.851682,-0.765734 -1.239827,-1.630473 -1.239827,-2.762176 0,-0.791631 0.04821,-0.990834 0.412736,-1.705467 1.435209,-2.81364 5.325676,-2.728223 6.741643,0.148016 0.539794,1.096478 0.539608,2.042582 -6.25e-4,3.139938 -0.340213,0.691083 -1.17086,1.613365 -1.453061,1.613365 -0.05176,0 -0.108546,3.329893 -0.126179,7.399764 -0.03115,7.189469 -0.03876,7.408753 -0.26791,7.716075 -0.549454,0.736905 -1.595615,1.000168 -2.399854,0.603916 z"
   id="path3813"
   inkscape:connector-curvature="0"
   transform="matrix(3.0069565,0,0,3.0069565,70.8,115.80217)" /><path
   style="fill:#ffffff;stroke-width:0.11792453"
   d="M 59.740566,86.309616 C 53.59736,85.652486 49.386172,81.344578 48.23529,74.540094 47.979849,73.029822 47.881837,69.28327 48.058238,67.7722 c 0.621709,-5.325616 3.990804,-8.960852 9.132916,-9.85437 1.469975,-0.255429 6.812812,-0.255429 8.282786,0 2.470711,0.429323 4.314747,1.371948 6.000117,3.067111 1.539981,1.548929 2.435095,3.217668 2.925263,5.453493 0.220018,1.003583 0.249554,1.498985 0.240456,4.033264 -0.01185,3.301782 -0.209111,4.783051 -0.91977,6.906826 -1.488087,4.447083 -4.59719,7.483832 -8.749401,8.54579 -1.58213,0.40464 -3.635239,0.555895 -5.230039,0.385302 z m 4.42217,-3.973293 c 1.216224,-0.329148 2.757561,-1.164275 3.545086,-1.920797 1.609863,-1.546486 2.517224,-3.439864 3.004959,-6.270405 0.293414,-1.702818 0.324305,-5.741446 0.0538,-7.034272 -0.554746,-2.651344 -2.472922,-4.634862 -5.212284,-5.38984 -0.84079,-0.231724 -1.203721,-0.253364 -4.221755,-0.251715 -3.003625,0.0016 -3.385122,0.02458 -4.223343,0.253925 -1.337784,0.366034 -2.257691,0.895907 -3.238037,1.865131 -0.680171,0.672454 -0.951781,1.051368 -1.312782,1.831415 -0.722977,1.562201 -0.778737,1.932554 -0.769492,5.110895 0.0092,3.177589 0.180102,4.348595 0.923114,6.326714 1.135052,3.021848 3.251676,4.905255 6.26205,5.572071 1.085211,0.240382 4.160291,0.185192 5.188679,-0.09312 z"
   id="path3815"
   inkscape:connector-curvature="0"
   transform="matrix(3.0069565,0,0,3.0069565,70.8,115.80217)" /><path
   style="fill:#ffffff;stroke-width:0.11792453"
   d="m 56.700257,72.751995 c -0.57973,-0.285738 -0.890754,-0.801307 -0.94413,-1.565038 -0.03783,-0.541318 0.0025,-0.727488 0.2303,-1.062657 1.064245,-1.56596 3.400365,-0.881699 3.400365,0.995983 0,1.386145 -1.426686,2.252666 -2.686535,1.631712 z"
   id="path3817"
   inkscape:connector-curvature="0"
   transform="matrix(3.0069565,0,0,3.0069565,70.8,115.80217)" /><path
   style="fill:#ffffff;stroke-width:0.11792453"
   d="m 64.575532,72.815631 c -1.053619,-0.420136 -1.522521,-1.804767 -0.913975,-2.698906 0.608191,-0.893618 1.46827,-1.151567 2.375425,-0.712421 0.685267,0.331732 1.06026,0.917787 1.06026,1.657017 0,1.300478 -1.333447,2.228134 -2.52171,1.75431 z"
   id="path3819"
   inkscape:connector-curvature="0"
   transform="matrix(3.0069565,0,0,3.0069565,70.8,115.80217)" /><path
   style="fill:#ffffff;stroke-width:0.11792453"
   d="M 12.603119,99.59469 C 12.32545,99.453555 11.986068,99.150441 11.83661,98.910093 L 11.568396,98.478774 V 82.617925 66.757075 l 0.277214,-0.445882 c 0.375719,-0.604324 1.078489,-0.954263 1.761749,-0.877249 0.595404,0.06711 1.026247,0.344862 1.41033,0.909196 l 0.26533,0.389851 v 15.884934 15.884932 l -0.26533,0.389852 c -0.606155,0.890625 -1.520467,1.156441 -2.41457,0.701981 z"
   id="path3821"
   inkscape:connector-curvature="0"
   transform="matrix(3.0069565,0,0,3.0069565,70.8,115.80217)" /><path
   style="fill:#ffffff;stroke-width:0.11792453"
   d="m 66.252144,43.97841 c -0.438668,-0.216211 -0.81926,-0.696428 -0.970846,-1.224978 -0.113998,-0.397487 1.785591,-25.471229 2.006316,-26.482494 0.548879,-2.514726 1.933431,-4.917792 4.068518,-7.0614297 2.340602,-2.3499759 4.9033,-3.8901781 7.890395,-4.7421915 1.020408,-0.2910523 1.240347,-0.3081883 4.58105,-0.3569222 2.946187,-0.042979 3.665114,-0.019796 4.481132,0.1445023 3.948418,0.7949793 8.127245,3.4566318 10.610258,6.7580741 1.336673,1.777254 2.265013,3.798849 2.502383,5.449293 0.042,0.291863 0.5188,6.254477 1.05961,13.250253 0.74215,9.600245 0.95462,12.823439 0.86637,13.14305 -0.24792,0.897888 -1.18501,1.449994 -2.15288,1.268419 -0.54535,-0.102307 -1.18436,-0.723674 -1.344288,-1.307164 -0.07087,-0.258568 -0.557829,-6.095124 -1.082127,-12.970124 -0.524298,-6.875 -1.027055,-12.82485 -1.117237,-13.22189 -0.903444,-3.977547 -5.76021,-8.1120196 -10.31082,-8.7774068 -1.40911,-0.2060391 -5.968943,-0.085505 -6.96262,0.1840484 -4.0052,1.086487 -7.92769,4.5477864 -9.155841,8.0793334 -0.258863,0.744361 -0.365694,1.885489 -1.282654,13.70084 -0.550149,7.088866 -1.057173,13.028546 -1.12672,13.199287 -0.392027,0.962445 -1.624909,1.428387 -2.559999,0.9675 z"
   id="path3823"
   inkscape:connector-curvature="0"
   transform="matrix(3.0069565,0,0,3.0069565,70.8,115.80217)" /><path
   style="fill:#ffffff;stroke-width:0.11792453"
   d="m 82.323918,45.87083 c -3.94545,-0.953734 -7.512602,-5.28876 -8.903904,-10.82058 -0.515637,-2.050175 -0.61031,-3.421057 -0.568476,-8.231635 0.03629,-4.173279 0.04628,-4.336946 0.284305,-4.658019 0.357034,-0.481607 0.970731,-0.863115 1.392209,-0.865474 0.689006,-0.0039 2.009975,-0.35032 2.838848,-0.744572 1.441273,-0.68554 2.612461,-1.984209 3.191952,-3.539388 0.407628,-1.093948 1.35154,-1.670946 2.278955,-1.393086 0.701603,0.210206 1.04943,0.556346 1.488216,1.480999 1.107628,2.334104 3.884777,3.65442 8.677494,4.125464 1.744024,0.171409 2.057556,0.292659 2.466104,0.953705 0.228605,0.36989 0.237907,0.576151 0.237452,5.26492 -4.72e-4,5.221771 -0.05546,5.917322 -0.637127,8.063911 -1.216992,4.49122 -4.199018,8.498842 -7.331183,9.852567 -1.584731,0.684922 -3.822286,0.896159 -5.414845,0.511188 z m 2.912023,-3.597865 c 2.736573,-0.581097 5.213647,-3.690077 6.373769,-7.999727 l 0.366235,-1.360502 0.04856,-3.972623 0.04856,-3.972622 -0.452807,-0.07255 C 89.006781,24.476176 86.968616,23.890467 85.429227,23.11582 84.409662,22.602757 83.381238,21.91873 82.98062,21.487198 82.823383,21.317827 82.653923,21.17925 82.604042,21.17925 c -0.04988,0 -0.372294,0.298276 -0.716473,0.662835 -1.110706,1.176474 -2.727036,2.170873 -4.399364,2.706576 l -0.825472,0.264426 v 3.813978 c 0,4.184117 0.04465,4.598591 0.71925,6.677023 1.167996,3.59856 3.418584,6.264369 5.8379,6.914959 0.788809,0.212123 1.217092,0.223578 2.016055,0.05392 z"
   id="path3825"
   inkscape:connector-curvature="0"
   transform="matrix(3.0069565,0,0,3.0069565,70.8,115.80217)" /><path
   style="fill:#ffffff;stroke-width:0.11792453"
   d="m 112.33733,95.811788 c -0.38854,-0.155021 -0.69186,-0.439413 -0.92841,-0.870472 -0.17702,-0.322566 -0.19979,-1.837978 -0.25603,-17.040373 l -0.0617,-16.68632 -0.32103,-1.097456 c -1.6113,-5.508292 -6.04539,-8.886152 -12.953744,-9.868061 -0.673428,-0.09572 -1.437232,-0.175003 -1.697343,-0.176191 l -0.472928,-0.0022 -0.204474,1.111594 c -0.975366,5.302411 -4.220818,9.094888 -8.545513,9.985866 l -0.733579,0.151133 -0.03293,5.25424 c -0.0313,4.993179 -0.04432,5.269222 -0.262091,5.555742 -0.411367,0.541225 -0.792313,0.746225 -1.475387,0.793959 -0.769016,0.05374 -1.307621,-0.235902 -1.708889,-0.918973 -0.23279,-0.396275 -0.243552,-0.612387 -0.27632,-5.548605 l -0.0341,-5.13627 -0.909301,-0.206768 c -1.18681,-0.269872 -3.076242,-1.198989 -4.008757,-1.971281 -2.468407,-2.044294 -4.127491,-5.589337 -4.527136,-9.673349 -0.161738,-1.652809 -0.07198,-2.09524 0.546713,-2.694903 0.356815,-0.345838 0.512282,-0.40884 1.11678,-0.452566 0.576711,-0.04172 0.777884,-0.0041 1.125261,0.210632 0.535027,0.330665 0.887367,1.011195 0.887367,1.713913 0,1.554122 0.542366,3.759217 1.319177,5.363372 0.50164,1.035911 0.746303,1.384543 1.497524,2.133895 1.40214,1.398651 2.751715,1.929203 4.907355,1.929203 2.013294,0 3.429208,-0.517516 4.720294,-1.725263 1.735467,-1.623445 2.708922,-4.001078 2.987633,-7.297203 0.110169,-1.30288 0.246971,-1.598848 0.970369,-2.099358 0.395275,-0.273485 0.436847,-0.277023 2.524534,-0.214804 6.143785,0.183103 11.158105,2.102365 14.686205,5.621238 1.94011,1.935043 3.21053,4.01814 3.99232,6.546159 0.73494,2.376512 0.7186,1.926167 0.71936,19.823364 l 7.1e-4,16.285626 -0.26814,0.397888 c -0.5534,0.821196 -1.47731,1.140282 -2.32378,0.802552 z"
   id="path3827"
   inkscape:connector-curvature="0"
   transform="matrix(3.0069565,0,0,3.0069565,70.8,115.80217)" /><path
   style="fill:#ffffff;stroke-width:0.11792453"
   d="m 101.05132,99.706169 c -0.50155,-0.146728 -1.062534,-0.72625 -1.223688,-1.264134 -0.0953,-0.318086 -0.104111,-4.709432 -0.03236,-16.129306 l 0.0986,-15.69222 0.339838,-0.445409 c 0.80677,-1.057398 2.24503,-1.012072 3.07268,0.09683 l 0.24314,0.325758 -0.0405,15.645729 c -0.0223,8.605151 -0.0841,15.849776 -0.1374,16.099168 -0.20798,0.973475 -1.35321,1.646495 -2.3203,1.363579 z"
   id="path3829"
   inkscape:connector-curvature="0"
   transform="matrix(3.0069565,0,0,3.0069565,70.8,115.80217)" /><path
   style="fill:#ffffff;stroke-width:0.11792453"
   d="m 43.547618,99.664055 c -1.060916,-0.37837 -1.31392,-0.902541 -1.224841,-2.537619 0.122451,-2.24764 0.86001,-3.967106 2.328309,-5.427968 2.096831,-2.08621 5.489653,-3.205955 9.79328,-3.232108 l 1.838233,-0.01117 2.542129,1.690024 2.542128,1.690024 2.518223,-1.690024 2.518223,-1.690024 1.886792,0.01364 c 2.994283,0.02165 5.295211,0.51462 7.488208,1.604344 1.043522,0.518537 1.397843,0.773454 2.2535,1.621288 1.559148,1.544893 2.286796,3.208804 2.427477,5.55091 0.05419,0.902106 0.02986,1.198032 -0.122739,1.493126 -0.588268,1.137585 -2.071211,1.366452 -2.978049,0.459615 -0.430239,-0.430238 -0.635187,-1.04452 -0.636135,-1.906662 -0.0033,-2.957732 -2.778499,-4.811215 -7.647302,-5.107351 l -1.374582,-0.08361 -2.7968,1.856413 c -1.675852,1.11237 -2.962601,1.887517 -3.210481,1.93402 -0.227526,0.04268 -0.58748,0.0175 -0.7999,-0.05596 -0.212418,-0.07346 -1.596968,-0.938565 -3.076774,-1.922453 l -2.690561,-1.788886 -1.024062,0.03111 c -2.356841,0.0716 -4.703076,0.688431 -6.070162,1.595851 -1.267098,0.841051 -1.824331,1.843945 -1.970144,3.545816 -0.09544,1.11399 -0.266343,1.608313 -0.687935,1.989849 -0.227685,0.206052 -1.004197,0.538299 -1.258087,0.538299 -0.06486,0 -0.320435,-0.07223 -0.567948,-0.160499 z"
   id="path3831"
   inkscape:connector-curvature="0"
   transform="matrix(3.0069565,0,0,3.0069565,70.8,115.80217)" /></svg>