<?xml version="1.0" encoding="utf-8"?>
<!-- Generator: Adobe Illustrator 22.0.1, SVG Export Plug-In . SVG Version: 6.00 Build 0)  -->
<svg version="1.1" id="Layer_1" xmlns="http://www.w3.org/2000/svg" xmlns:xlink="http://www.w3.org/1999/xlink" x="0px" y="0px"
	 viewBox="70.8 116.3 345.8 299.7" style="enable-background:new 70.8 116.3 345.8 299.7;" xml:space="preserve" width="115px" height="100px">
<style type="text/css">
	.st0{fill:#3A6BC5;}
</style>
<g>
	<g>
		<g>
			<path class="st0" d="M249.5,289.2c-20.4,0-34.6,14.2-34.6,34.6v5.8c0,28,15.8,46.1,40.3,46.1c24.5,0,40.3-18.1,40.3-46.1v-5.8
				c0-20.4-14.2-34.6-34.6-34.6H249.5z M284.1,323.8v5.8c0,10.4-2.8,34.6-28.8,34.6c-26,0-28.8-24.2-28.8-34.6v-5.8
				c0-14,9-23.1,23.1-23.1H261C275,300.7,284.1,309.8,284.1,323.8z"/>
			<path class="st0" d="M243.9,323.8L243.9,323.8c-3.2,0-5.8,2.6-5.8,5.8c0,3.2,2.6,5.8,5.8,5.8c3.2,0,5.8-2.6,5.8-5.8
				C249.7,326.4,247.1,323.8,243.9,323.8z"/>
			<path class="st0" d="M272.1,248.8c3.2,0.2,5.9-2.1,6.2-5.3l5.8-74.8c1.3-13.7,19.7-29.4,34.6-29.4h11.5
				c15.2,0,33.6,15.6,34.6,29.3l5.8,74.9c0.2,3,2.8,5.3,5.7,5.3c0.1,0,0.3,0,0.4,0c3.2-0.2,5.5-3,5.3-6.2l-5.8-74.9
				c-1.5-21.1-27.1-39.9-46.1-39.9h-11.5c-21,0-44.2,20.1-46.1,39.9l-5.8,74.9C266.6,245.8,269,248.6,272.1,248.8z"/>
			<path class="st0" d="M324.1,166.3c-0.8-2.4-3-3.9-5.5-3.9c-2.5,0-4.7,1.6-5.5,3.9c-4.3,13-17.1,13.3-17.6,13.3
				c-3.2,0-5.8,2.6-5.8,5.8v23.1c0,19.3,13.2,46.1,34.6,46.1c21.4,0,34.6-26.9,34.6-46.1v-23.1c0-3.2-2.6-5.8-5.8-5.8
				C353,179.7,328.5,179.3,324.1,166.3z M347.5,208.5c0,15.7-10.3,34.6-23.1,34.6c-12.8,0-23.1-18.9-23.1-34.6v-18
				c5.6-1.3,12.6-4.5,17.7-11c8.1,8.1,21,10.6,28.4,11.4L347.5,208.5L347.5,208.5z"/>
			<path class="st0" d="M186.1,173.9h5.8c3.2,0,5.8-2.6,5.8-5.8c0-3.2-2.6-5.8-5.8-5.8h-5.8c-3.2,0-5.8,2.6-5.8,5.8
				C180.3,171.3,182.9,173.9,186.1,173.9z"/>
			<path class="st0" d="M267,335.3c3.2,0,5.8-2.6,5.8-5.8c0-3.2-2.6-5.8-5.8-5.8h-0.1c-3.2,0-5.7,2.6-5.7,5.8
				C261.2,332.7,263.8,335.3,267,335.3z"/>
			<path class="st0" d="M128.7,184c1.1,11.1,5.9,20.8,6.1,21.3c5.2,10.5,13.1,26.2,39.7,26.2c26.6,0,34.5-15.8,39.7-26.2
				c0.2-0.5,5-10.2,6.2-21.3c3.6-2,6-5.8,6-10.1v-11.5c0-4.3-2.3-8-5.8-10v-1.5c0-19.1-15.5-34.6-34.6-34.6h-23.1
				c-19.1,0-34.6,15.5-34.6,34.6v1.5c-3.4,2-5.8,5.7-5.8,10v11.5C122.7,178.3,125.1,182.1,128.7,184z M134.2,162.4
				c3.2,0,5.8-2.6,5.8-5.8v-5.8c0-12.7,10.3-23.1,23.1-23.1h23.1c12.7,0,23.1,10.3,23.1,23.1v5.8c0,3.2,2.6,5.8,5.8,5.8v11.5
				c-3.2,0-5.8,2.6-5.8,5.8c0,10-5.1,20.4-5.2,20.5c-6,12-11.3,19.9-29.4,19.9c-18.1,0-23.4-7.9-29.4-19.9
				c-0.1-0.1-5.2-10.5-5.2-20.5c0-3.2-2.6-5.8-5.8-5.8L134.2,162.4L134.2,162.4z"/>
			<path class="st0" d="M272.6,381.4c-1.1,0-2.3,0.3-3.2,1l-14.1,9.4l-14.1-9.4c-0.9-0.6-2.1-1-3.2-1c-33.3,0-40.3,15.7-40.3,28.8
				c0,3.2,2.6,5.8,5.8,5.8c3.2,0,5.8-2.6,5.8-5.8c0-4.6,0-16.8,27.1-17.3l15.8,10.5c1.9,1.3,4.5,1.3,6.4,0l15.8-10.5
				c27.1,0.5,27.1,12.6,27.1,17.3c0,3.2,2.6,5.8,5.8,5.8c3.2,0,5.8-2.6,5.8-5.8C312.9,397.1,305.9,381.4,272.6,381.4z"/>
			<path class="st0" d="M376.7,312.3L376.7,312.3c-3.2,0-5.8,2.6-5.8,5.7l-0.4,92.2c0,3.2,2.6,5.8,5.7,5.8h0c3.2,0,5.8-2.6,5.8-5.7
				l0.4-92.2C382.5,314.9,379.9,312.3,376.7,312.3z"/>
			<path class="st0" d="M157.3,173.9h5.8c3.2,0,5.8-2.6,5.8-5.8c0-3.2-2.6-5.8-5.8-5.8h-5.8c-3.2,0-5.8,2.6-5.8,5.8
				C151.5,171.3,154.1,173.9,157.3,173.9z"/>
			<path class="st0" d="M203.3,278.8l4.8-24.1c29.1,0.7,50.1,7.9,56.5,19.7c1.5,2.8,5,3.8,7.8,2.3c2.8-1.5,3.8-5,2.3-7.8
				c-9-16.6-34.2-25.8-70.9-25.8c-2.9-0.1-5.5,1.8-6,4.6l-5.8,28.7c-0.6,3.1,1.4,6.2,4.5,6.8c0.4,0.1,0.8,0.1,1.1,0.1
				C200.3,283.4,202.7,281.5,203.3,278.8z"/>
			<path class="st0" d="M402.5,271.9c-11.3-11.3-28.3-17.2-49.1-17.2c-3.3,0.1-5.9,2.5-5.9,5.7c0,1.2-0.4,28.8-23.1,28.8
				c-22.7,0-23.1-27.6-23.1-28.8c0-3.2-2.6-5.7-5.8-5.7c-3.2,0-5.8,2.6-5.8,5.8c0,12.9,6.2,36.4,28.8,39.8v29.3
				c0,3.2,2.6,5.8,5.8,5.8c3.2,0,5.8-2.6,5.8-5.8v-29.3c19.5-3,26.8-20.8,28.4-33.9c15.3,0.9,27.6,5.6,35.7,13.7
				c6.9,6.9,10.8,16.3,10.8,26.4v92.2c0,3.2,2.6,5.8,5.8,5.8c3.2,0,5.8-2.6,5.8-5.8v-92.2C416.7,293.3,411.6,281,402.5,271.9z"/>
			<path class="st0" d="M174.6,243.1c-6.4,0-11.5,5.2-11.5,11.5c0,4.2,2.3,7.9,5.8,9.9v42c0,3.2,2.6,5.8,5.8,5.8
				c3.2,0,5.8-2.6,5.8-5.8v-42c3.4-2,5.8-5.7,5.8-9.9C186.1,248.3,180.9,243.1,174.6,243.1z"/>
			<path class="st0" d="M111.2,312.3c-3.2,0-5.8,2.6-5.8,5.8v92.2c0,3.2,2.6,5.8,5.8,5.8c3.2,0,5.8-2.6,5.8-5.8V318
				C116.9,314.8,114.4,312.3,111.2,312.3z"/>
			<path class="st0" d="M151.4,247.7c-0.6-2.8-3.3-4.6-6-4.6c-30.3,0-53.4,6.5-65.2,18.3c-6.2,6.2-9.3,13.6-9.3,22v115.3
				c0,3.2,2.6,5.8,5.8,5.8c3.2,0,5.8-2.6,5.8-5.8V283.4c0-5.3,1.9-9.9,5.9-13.9c9-9,28.1-14.3,52.8-14.8l27.9,133.6
				c0.6,3.1,3.7,5.1,6.8,4.5c3.1-0.7,5.1-3.7,4.5-6.8L151.4,247.7z"/>
		</g>
	</g>
</g>
</svg>
