<?xml version="1.0" encoding="utf-8"?>
<!-- Generator: Adobe Illustrator 22.0.1, SVG Export Plug-In . SVG Version: 6.00 Build 0)  -->
<svg version="1.1" id="Calque_1" xmlns="http://www.w3.org/2000/svg" xmlns:xlink="http://www.w3.org/1999/xlink" x="0px" y="0px"
	 viewBox="0 0 298.6 389" style="enable-background:new 0 0 298.6 389;" xml:space="preserve" width="65" height="65">
<style type="text/css">
	.st0{fill:#E5A629;}
	.st1{fill:#D8D7DA;}
	.st2{fill:#FCC752;}
	.st3{fill:#FFFFFF;}
</style>
<g>
	<path class="st0" d="M149.3,0v83.5c35.3,0,64,28.7,64,64c0,35.3-28.7,64-64,64V389l117.1-147.3c21-26.6,32.2-58.6,32.2-92.5
		C298.6,67,231.6,0,149.3,0L149.3,0z M149.3,0"/>
	<path class="st1" d="M213.3,147.5c0-35.3-28.7-64-64-64v128C184.6,211.5,213.3,182.8,213.3,147.5L213.3,147.5z M213.3,147.5"/>
	<path class="st2" d="M85.3,147.5c0-35.3,28.7-64,64-64V0C67,0,0,67,0,149.3c0,33.9,11.1,65.9,32.2,92.5L149.3,389V211.5
		C114,211.5,85.3,182.8,85.3,147.5L85.3,147.5z M85.3,147.5"/>
	<path class="st3" d="M85.3,147.5c0,35.3,28.7,64,64,64v-128C114,83.5,85.3,112.2,85.3,147.5L85.3,147.5z M85.3,147.5"/>
</g>
</svg>
